<svg xmlns="http://www.w3.org/2000/svg" version="1.1" xmlns:xlink="http://www.w3.org/1999/xlink" viewBox="0 0 6.105190802598924 5.290887891088159"><g transform="matrix(0.8478224622933787,0,0,0.8478224622933787,0.8671135975580948,3.5586397370227756)"><g transform="matrix(1,0,0,1,0,0)" clip-path="url(#SvgjsClipPath22994)"><g clip-path="url(#SvgjsClipPath22992f7d49f49-db42-4bc3-8e54-1346cfda6d32)"><path d=" M 2.105523409369934 -2.0069322563860448 L 3.4032940203204105 -2.2626763430071284 L 2.6137937021131377 -2.8182159803485805 L 1.5844269477288857 -2.6803743095599932 L 1.689525402042563 -2.5719226974032803 Z" fill="#a91f24" transform="matrix(1,0,0,1,0,0)" fill-rule="nonzero"></path></g><g clip-path="url(#SvgjsClipPath22992f7d49f49-db42-4bc3-8e54-1346cfda6d32)"><path d=" M 3.6820125788845544 -2.8275884326377985 L 2.825542468642477 -3.2477146666142356 L 2.613540663104229 -2.8183934829908006 L 2.6137937021131377 -2.8182159803485805 L 3.4032940203204105 -2.2626763430071284 Z" fill="#db242a" transform="matrix(1,0,0,1,0,0)" fill-rule="nonzero"></path></g><g clip-path="url(#SvgjsClipPath22992f7d49f49-db42-4bc3-8e54-1346cfda6d32)"><path d=" M 1.689525402042563 -2.5719226974032803 L 1.5844269477288857 -2.6803743095599932 L 1.051877264939815 -3.229917485394262 L 1.468092810747653 -2.6648336795511183 L 2.105523409369934 -2.0069322563860448 Z" fill="#e05e50" transform="matrix(1,0,0,1,0,0)" fill-rule="nonzero"></path></g><g clip-path="url(#SvgjsClipPath22992f7d49f49-db42-4bc3-8e54-1346cfda6d32)"><path d=" M 1.468092810747653 -2.6648336795511183 L 0.905543304743434 -2.841898742570597 L 0.905543304743434 -1.7872513894043587 L 1.0234122531173981 -1.734157612291387 L 1.468092810747653 -1.80881694389917 Z" fill="#e05e50" transform="matrix(1,0,0,1,0,0)" fill-rule="nonzero"></path></g><g clip-path="url(#SvgjsClipPath22992f7d49f49-db42-4bc3-8e54-1346cfda6d32)"><path d=" M 2.1051577695659605 -0.6376884471581419 L 2.105523409369934 -0.6371750188106446 L 2.105523409369934 -0.637378325801734 L 2.105523409369934 -0.6381447931581414 Z" fill="#86191b" transform="matrix(1,0,0,1,0,0)" fill-rule="nonzero"></path></g><g clip-path="url(#SvgjsClipPath22992f7d49f49-db42-4bc3-8e54-1346cfda6d32)"><path d=" M 1.5777358018721495 -1.3796179008603813 L 1.7945101608312233 -1.0746794652154192 L 1.7945101608312233 -1.416009383095392 Z" fill="#86191b" transform="matrix(1,0,0,1,0,0)" fill-rule="nonzero"></path></g><g clip-path="url(#SvgjsClipPath22992f7d49f49-db42-4bc3-8e54-1346cfda6d32)"><path d=" M 1.9899289970562815 -1.8964294330792335 L 2.105523409369934 -2.0069322563860448 L 1.468092810747653 -2.6648336795511183 L 1.468092810747653 -1.80881694389917 Z" fill="#db242a" transform="matrix(1,0,0,1,0,0)" fill-rule="nonzero"></path></g><g clip-path="url(#SvgjsClipPath22992f7d49f49-db42-4bc3-8e54-1346cfda6d32)"><path d=" M 4.319739849323835 -2.459712095371319 L 4.33872543810172 -2.2907796247754 L 3.6837546070182032 -2.180813062755085 L 3.963029601177959 -2.099296342727852 L 3.963029601177959 -1.780051350509927 L 4.41627907931265 -1.8561407122150333 L 4.430119750096033 -1.6994223000837887 L 4.810163385219237 -2.147698576436448 Z" fill="#010101" transform="matrix(1,0,0,1,0,0)" fill-rule="nonzero"></path></g><g clip-path="url(#SvgjsClipPath22992f7d49f49-db42-4bc3-8e54-1346cfda6d32)"><path d=" M 1.7945101608312233 -1.7096195531968565 L 1.9899289970562815 -1.8964294330792335 L 1.468092810747653 -1.80881694389917 L 1.0234122531173981 -1.734157612291387 L 0.8144774117347283 -1.6990787112688477 L 0.7868581569952433 -1.8312284118669058 L 0.34535419290576247 -1.3867205087890835 L 0.905543304743434 -1.1218742117869378 L 0.8860564860375152 -1.263501458749608 L 1.5777358018721495 -1.3796179008603813 L 1.7945101608312233 -1.416009383095392 Z" fill="#010101" transform="matrix(1,0,0,1,0,0)" fill-rule="nonzero"></path></g><g clip-path="url(#SvgjsClipPath22992f7d49f49-db42-4bc3-8e54-1346cfda6d32)"><path d=" M 2.105523409369934 -1.6066515997598028 L 2.105523409369934 -2.0069322563860448 L 1.9899289970562815 -1.8964294330792335 L 1.7945101608312233 -1.7096195531968565 L 1.7945101608312233 -1.416009383095392 L 1.7945101608312233 -1.0746794652154192 L 1.7945101608312233 -0.25000000000000044 L 2.1051577695659605 -0.6376884471581419 L 2.105523409369934 -0.6381447931581414 Z" fill="#a91f24" transform="matrix(1,0,0,1,0,0)" fill-rule="nonzero"></path></g><g clip-path="url(#SvgjsClipPath22992f7d49f49-db42-4bc3-8e54-1346cfda6d32)"><path d=" M 2.105523409369934 -2.0069322563860448 L 2.105523409369934 -1.6066515997598028 L 2.105523409369934 -0.6381447931581414 L 2.105523409369934 -0.637378325801734 L 3.4032940203204105 -0.8931699549807348 L 3.4032940203204105 -0.8938572890006093 L 3.4032940203204105 -2.2626763430071284 Z" fill="#db242a" transform="matrix(1,0,0,1,0,0)" fill-rule="nonzero"></path></g><g clip-path="url(#SvgjsClipPath22992f7d49f49-db42-4bc3-8e54-1346cfda6d32)"><path d=" M 3.6837546070182032 -2.180813062755085 L 3.4032940203204105 -2.2626763430071284 L 3.4032940203204105 -0.8938572890006093 L 3.963029601177959 -0.6590852568503491 L 3.963029601177959 -1.780051350509927 L 3.963029601177959 -2.099296342727852 Z" fill="#e05e50" transform="matrix(1,0,0,1,0,0)" fill-rule="nonzero"></path></g></g><g><path d=" M 0.051000000000000004 0.954 Q 0.036000000000000004 0.933 0.0375 0.9 Q 0.039 0.867 0.0765 0.843 Q 0.1005 0.8280000000000001 0.1275 0.83025 Q 0.1545 0.8325 0.18 0.858 Q 0.2235 0.9015 0.2715 0.9255 Q 0.3195 0.9495 0.3915 0.9495 Q 0.41400000000000003 0.948 0.441 0.94275 Q 0.468 0.9375 0.48825 0.91875 Q 0.5085000000000001 0.9 0.5085000000000001 0.861 Q 0.5085000000000001 0.8280000000000001 0.486 0.8085 Q 0.4635 0.789 0.42675 0.7755000000000001 Q 0.39 0.762 0.34500000000000003 0.75 Q 0.2985 0.7364999999999999 0.24975 0.72 Q 0.201 0.7035 0.1605 0.67725 Q 0.12 0.651 0.0945 0.6074999999999999 Q 0.069 0.5640000000000001 0.069 0.498 Q 0.069 0.42300000000000004 0.111 0.37050000000000005 Q 0.153 0.31799999999999995 0.21975 0.2895 Q 0.28650000000000003 0.261 0.36 0.261 Q 0.40650000000000003 0.261 0.4575 0.27225 Q 0.5085000000000001 0.2835 0.555 0.30825 Q 0.6015 0.33299999999999996 0.633 0.37350000000000005 Q 0.6495 0.396 0.6525 0.4275 Q 0.6555 0.45899999999999996 0.624 0.48450000000000004 Q 0.6015 0.5025 0.5715 0.50025 Q 0.5415 0.498 0.522 0.48 Q 0.4965 0.44699999999999995 0.45375 0.4275 Q 0.41100000000000003 0.40800000000000003 0.3555 0.40800000000000003 Q 0.333 0.40800000000000003 0.30675 0.41325 Q 0.2805 0.4185 0.261 0.43574999999999997 Q 0.2415 0.45299999999999996 0.2415 0.49050000000000005 Q 0.2415 0.525 0.264 0.54525 Q 0.28650000000000003 0.5655 0.32475 0.57825 Q 0.363 0.591 0.40650000000000003 0.603 Q 0.4515 0.615 0.498 0.6315 Q 0.5445 0.648 0.5835 0.675 Q 0.6225 0.702 0.6465 0.74475 Q 0.6705 0.7875000000000001 0.6705 0.8535 Q 0.6705 0.93 0.6255000000000001 0.984 Q 0.5805 1.038 0.513 1.06575 Q 0.4455 1.0935 0.375 1.0935 Q 0.28650000000000003 1.0935 0.198 1.06275 Q 0.1095 1.032 0.051000000000000004 0.954 M 0.9299919433593751 0.026999999999999913 Q 0.950991943359375 0.026999999999999913 0.974241943359375 0.038249999999999895 Q 0.997491943359375 0.0495000000000001 1.009491943359375 0.0674999999999999 L 1.373991943359375 0.6285000000000001 L 1.298991943359375 0.6255 L 1.672491943359375 0.0674999999999999 Q 1.700991943359375 0.026999999999999913 1.7459919433593751 0.026999999999999913 Q 1.781991943359375 0.026999999999999913 1.8104919433593751 0.05249999999999999 Q 1.838991943359375 0.07800000000000007 1.838991943359375 0.11850000000000005 L 1.838991943359375 0.987 Q 1.838991943359375 1.026 1.813491943359375 1.05225 Q 1.787991943359375 1.0785 1.7459919433593751 1.0785 Q 1.7039919433593749 1.0785 1.677741943359375 1.05225 Q 1.651491943359375 1.026 1.651491943359375 0.987 L 1.651491943359375 0.28049999999999997 L 1.709991943359375 0.29400000000000004 L 1.403991943359375 0.7605 Q 1.390491943359375 0.777 1.370241943359375 0.789 Q 1.349991943359375 0.8009999999999999 1.3289919433593749 0.7995 Q 1.309491943359375 0.8009999999999999 1.2892419433593751 0.789 Q 1.268991943359375 0.777 1.255491943359375 0.7605 L 0.968991943359375 0.3075 L 1.0079919433593751 0.22799999999999998 L 1.0079919433593751 0.987 Q 1.0079919433593751 1.026 0.983991943359375 1.05225 Q 0.959991943359375 1.0785 0.920991943359375 1.0785 Q 0.883491943359375 1.0785 0.8594919433593751 1.05225 Q 0.835491943359375 1.026 0.835491943359375 0.987 L 0.835491943359375 0.11850000000000005 Q 0.835491943359375 0.08099999999999996 0.863241943359375 0.05400000000000005 Q 0.890991943359375 0.026999999999999913 0.9299919433593751 0.026999999999999913 M 2.2184465332031253 0.987 Q 2.2184465332031253 1.026 2.1929465332031253 1.05225 Q 2.167446533203125 1.0785 2.128446533203125 1.0785 Q 2.0894465332031253 1.0785 2.0639465332031253 1.05225 Q 2.038446533203125 1.026 2.038446533203125 0.987 L 2.038446533203125 0.36750000000000005 Q 2.038446533203125 0.3285 2.0639465332031253 0.30225 Q 2.0894465332031253 0.276 2.128446533203125 0.276 Q 2.167446533203125 0.276 2.1929465332031253 0.30225 Q 2.2184465332031253 0.3285 2.2184465332031253 0.36750000000000005 L 2.2184465332031253 0.987 M 2.1269465332031254 0.1785 Q 2.0759465332031253 0.1785 2.0549465332031254 0.16200000000000003 Q 2.033946533203125 0.14549999999999996 2.033946533203125 0.10350000000000004 L 2.033946533203125 0.07499999999999996 Q 2.033946533203125 0.031500000000000083 2.057196533203125 0.01574999999999993 Q 2.0804465332031254 0 2.128446533203125 0 Q 2.1809465332031253 0 2.201946533203125 0.01649999999999996 Q 2.222946533203125 0.03299999999999992 2.222946533203125 0.07499999999999996 L 2.222946533203125 0.10350000000000004 Q 2.222946533203125 0.14700000000000002 2.200446533203125 0.16274999999999995 Q 2.177946533203125 0.1785 2.1269465332031254 0.1785 M 2.35648095703125 0.954 Q 2.34148095703125 0.933 2.34298095703125 0.9 Q 2.34448095703125 0.867 2.38198095703125 0.843 Q 2.40598095703125 0.8280000000000001 2.43298095703125 0.83025 Q 2.45998095703125 0.8325 2.48548095703125 0.858 Q 2.52898095703125 0.9015 2.57698095703125 0.9255 Q 2.62498095703125 0.9495 2.69698095703125 0.9495 Q 2.71948095703125 0.948 2.74648095703125 0.94275 Q 2.77348095703125 0.9375 2.79373095703125 0.91875 Q 2.81398095703125 0.9 2.81398095703125 0.861 Q 2.81398095703125 0.8280000000000001 2.7914809570312498 0.8085 Q 2.76898095703125 0.789 2.73223095703125 0.7755000000000001 Q 2.69548095703125 0.762 2.65048095703125 0.75 Q 2.6039809570312498 0.7364999999999999 2.55523095703125 0.72 Q 2.50648095703125 0.7035 2.46598095703125 0.67725 Q 2.42548095703125 0.651 2.39998095703125 0.6074999999999999 Q 2.37448095703125 0.5640000000000001 2.37448095703125 0.498 Q 2.37448095703125 0.42300000000000004 2.41648095703125 0.37050000000000005 Q 2.45848095703125 0.31799999999999995 2.52523095703125 0.2895 Q 2.59198095703125 0.261 2.66548095703125 0.261 Q 2.71198095703125 0.261 2.76298095703125 0.27225 Q 2.81398095703125 0.2835 2.86048095703125 0.30825 Q 2.90698095703125 0.33299999999999996 2.93848095703125 0.37350000000000005 Q 2.9549809570312497 0.396 2.95798095703125 0.4275 Q 2.96098095703125 0.45899999999999996 2.92948095703125 0.48450000000000004 Q 2.90698095703125 0.5025 2.87698095703125 0.50025 Q 2.84698095703125 0.498 2.8274809570312502 0.48 Q 2.80198095703125 0.44699999999999995 2.75923095703125 0.4275 Q 2.71648095703125 0.40800000000000003 2.66098095703125 0.40800000000000003 Q 2.63848095703125 0.40800000000000003 2.61223095703125 0.41325 Q 2.58598095703125 0.4185 2.56648095703125 0.43574999999999997 Q 2.54698095703125 0.45299999999999996 2.54698095703125 0.49050000000000005 Q 2.54698095703125 0.525 2.5694809570312502 0.54525 Q 2.59198095703125 0.5655 2.63023095703125 0.57825 Q 2.66848095703125 0.591 2.71198095703125 0.603 Q 2.7569809570312502 0.615 2.80348095703125 0.6315 Q 2.84998095703125 0.648 2.88898095703125 0.675 Q 2.92798095703125 0.702 2.95198095703125 0.74475 Q 2.97598095703125 0.7875000000000001 2.97598095703125 0.8535 Q 2.97598095703125 0.93 2.93098095703125 0.984 Q 2.88598095703125 1.038 2.81848095703125 1.06575 Q 2.75098095703125 1.0935 2.68048095703125 1.0935 Q 2.59198095703125 1.0935 2.50348095703125 1.06275 Q 2.41498095703125 1.032 2.35648095703125 0.954 M 3.134972900390625 0.29100000000000004 L 3.490472900390625 0.29100000000000004 Q 3.526472900390625 0.29100000000000004 3.5504729003906252 0.31499999999999995 Q 3.5744729003906253 0.33899999999999997 3.5744729003906253 0.375 Q 3.5744729003906253 0.4095 3.5504729003906252 0.43274999999999997 Q 3.526472900390625 0.45599999999999996 3.490472900390625 0.45599999999999996 L 3.134972900390625 0.45599999999999996 Q 3.098972900390625 0.45599999999999996 3.074972900390625 0.43200000000000005 Q 3.050972900390625 0.40800000000000003 3.050972900390625 0.372 Q 3.050972900390625 0.3375 3.074972900390625 0.31425000000000003 Q 3.098972900390625 0.29100000000000004 3.134972900390625 0.29100000000000004 M 3.295472900390625 0.10350000000000004 Q 3.334472900390625 0.10350000000000004 3.359222900390625 0.12975000000000003 Q 3.383972900390625 0.15600000000000003 3.383972900390625 0.19499999999999995 L 3.383972900390625 0.8625 Q 3.383972900390625 0.8835 3.392222900390625 0.897 Q 3.400472900390625 0.9105 3.414722900390625 0.9165 Q 3.428972900390625 0.9225 3.445472900390625 0.9225 Q 3.463472900390625 0.9225 3.478472900390625 0.9157500000000001 Q 3.493472900390625 0.909 3.512972900390625 0.909 Q 3.533972900390625 0.909 3.5512229003906253 0.9285 Q 3.568472900390625 0.948 3.568472900390625 0.9825 Q 3.568472900390625 1.0245 3.522722900390625 1.0515 Q 3.476972900390625 1.0785 3.424472900390625 1.0785 Q 3.392972900390625 1.0785 3.354722900390625 1.07325 Q 3.3164729003906253 1.068 3.282722900390625 1.04775 Q 3.248972900390625 1.0275 3.226472900390625 0.9855 Q 3.203972900390625 0.9435 3.203972900390625 0.87 L 3.203972900390625 0.19499999999999995 Q 3.203972900390625 0.15600000000000003 3.230222900390625 0.12975000000000003 Q 3.256472900390625 0.10350000000000004 3.295472900390625 0.10350000000000004 M 4.10246044921875 1.0935 Q 3.97496044921875 1.0935 3.88121044921875 1.0402500000000001 Q 3.78746044921875 0.987 3.73721044921875 0.8955 Q 3.68696044921875 0.804 3.68696044921875 0.6885 Q 3.68696044921875 0.5535 3.74171044921875 0.45825000000000005 Q 3.79646044921875 0.363 3.88496044921875 0.31199999999999994 Q 3.97346044921875 0.261 4.07246044921875 0.261 Q 4.14896044921875 0.261 4.21721044921875 0.2925 Q 4.28546044921875 0.32399999999999995 4.33796044921875 0.37875000000000003 Q 4.39046044921875 0.4335 4.42121044921875 0.5055 Q 4.45196044921875 0.5775 4.45196044921875 0.6585000000000001 Q 4.45046044921875 0.6945 4.42346044921875 0.7170000000000001 Q 4.3964604492187505 0.7395 4.36046044921875 0.7395 L 3.78746044921875 0.7395 L 3.74246044921875 0.5895 L 4.29296044921875 0.5895 L 4.25996044921875 0.6194999999999999 L 4.25996044921875 0.579 Q 4.2569604492187505 0.5355 4.22921044921875 0.501 Q 4.20146044921875 0.4665 4.16021044921875 0.44625000000000004 Q 4.11896044921875 0.42600000000000005 4.07246044921875 0.42600000000000005 Q 4.02746044921875 0.42600000000000005 3.98846044921875 0.43800000000000006 Q 3.94946044921875 0.44999999999999996 3.92096044921875 0.47850000000000004 Q 3.89246044921875 0.507 3.87596044921875 0.555 Q 3.85946044921875 0.603 3.85946044921875 0.6765 Q 3.85946044921875 0.7575000000000001 3.89321044921875 0.81375 Q 3.92696044921875 0.87 3.98021044921875 0.89925 Q 4.03346044921875 0.9285 4.09346044921875 0.9285 Q 4.14896044921875 0.9285 4.18196044921875 0.9195 Q 4.21496044921875 0.9105 4.23521044921875 0.89775 Q 4.25546044921875 0.885 4.27196044921875 0.876 Q 4.29896044921875 0.8625 4.32296044921875 0.8625 Q 4.35596044921875 0.8625 4.37771044921875 0.885 Q 4.39946044921875 0.9075 4.39946044921875 0.9375 Q 4.39946044921875 0.978 4.35746044921875 1.0110000000000001 Q 4.31846044921875 1.044 4.24796044921875 1.06875 Q 4.17746044921875 1.0935 4.10246044921875 1.0935 M 4.691986083984375 1.0785 Q 4.652986083984375 1.0785 4.627486083984375 1.05225 Q 4.601986083984375 1.026 4.601986083984375 0.987 L 4.601986083984375 0.36750000000000005 Q 4.601986083984375 0.3285 4.627486083984375 0.30225 Q 4.652986083984375 0.276 4.691986083984375 0.276 Q 4.730986083984375 0.276 4.756486083984375 0.30225 Q 4.781986083984375 0.3285 4.781986083984375 0.36750000000000005 L 4.781986083984375 0.5085 L 4.771486083984375 0.40800000000000003 Q 4.787986083984375 0.372 4.814236083984375 0.34424999999999994 Q 4.840486083984375 0.3165 4.873486083984375 0.29774999999999996 Q 4.906486083984375 0.279 4.943986083984375 0.27 Q 4.981486083984375 0.261 5.018986083984375 0.261 Q 5.063986083984375 0.261 5.094736083984375 0.2865 Q 5.125486083984375 0.31199999999999994 5.125486083984375 0.34650000000000003 Q 5.125486083984375 0.396 5.099986083984375 0.41774999999999995 Q 5.074486083984375 0.4395 5.044486083984375 0.4395 Q 5.015986083984375 0.4395 4.992736083984375 0.42900000000000005 Q 4.969486083984375 0.4185 4.939486083984375 0.4185 Q 4.912486083984375 0.4185 4.884736083984375 0.43125 Q 4.856986083984375 0.44399999999999995 4.833736083984375 0.471 Q 4.810486083984375 0.498 4.796236083984375 0.53775 Q 4.781986083984375 0.5775 4.781986083984375 0.6315 L 4.781986083984375 0.987 Q 4.781986083984375 1.026 4.756486083984375 1.05225 Q 4.730986083984375 1.0785 4.691986083984375 1.0785" fill="#010101" fill-rule="nonzero"></path></g><g></g></g><defs><clipPath id="SvgjsClipPath22994"><path d=" M 0.34535419290576286 -3.2477146666142356 h 4.464809192313474 v 2.9977146666142356 h -4.464809192313474 Z"></path></clipPath><clipPath id="SvgjsClipPath22992f7d49f49-db42-4bc3-8e54-1346cfda6d32"><path d=" M 0.34535419290576286 -3.2477146666142356 L 4.810163385219237 -3.2477146666142356 L 4.810163385219237 -0.25 L 0.34535419290576286 -0.25 Z"></path></clipPath></defs></svg>